<svg id="visual" viewBox="0 0 960 540" width="960" height="540" xmlns="http://www.w3.org/2000/svg" xmlns:xlink="http://www.w3.org/1999/xlink" version="1.1"><rect x="0" y="0" width="960" height="540" fill="#001220"></rect><defs><linearGradient id="grad1_0" x1="43.8%" y1="0%" x2="100%" y2="100%"><stop offset="14.444444444444446%" stop-color="#001220" stop-opacity="1"></stop><stop offset="85.55555555555554%" stop-color="#001220" stop-opacity="1"></stop></linearGradient></defs><defs><linearGradient id="grad2_0" x1="0%" y1="0%" x2="56.3%" y2="100%"><stop offset="14.444444444444446%" stop-color="#001220" stop-opacity="1"></stop><stop offset="85.55555555555554%" stop-color="#001220" stop-opacity="1"></stop></linearGradient></defs><g transform="translate(960, 0)"><path d="M0 270C-24.9 258 -49.9 246 -77.9 239.7C-105.8 233.4 -136.8 232.8 -158.7 218.4C-180.6 204.1 -193.3 176 -208.7 151.6C-224.2 127.3 -242.3 106.8 -253 82.2C-263.6 57.6 -266.8 28.8 -270 0L0 0Z" fill="#FBAE3C"></path></g><g transform="translate(0, 540)"><path d="M0 -270C28.2 -267.3 56.4 -264.7 83.4 -256.8C110.4 -248.9 136.2 -235.8 158.1 -217.6C180.1 -199.5 198.2 -176.4 208.7 -151.6C219.3 -126.9 222.2 -100.6 231.1 -75.1C240 -49.6 255 -24.8 270 0L0 0Z" fill="#FBAE3C"></path></g></svg>